<svg width="118" height="110" viewBox="0 0 118 110" fill="none" xmlns="http://www.w3.org/2000/svg">
<path d="M105.919 0C109.04 0 112.034 1.28416 114.241 3.56998C116.448 5.8558 117.688 8.95604 117.688 12.1887V97.5094C117.688 100.742 116.448 103.842 114.241 106.128C112.034 108.414 109.04 109.698 105.919 109.698H11.7688C8.64752 109.698 5.65408 108.414 3.447 106.128C1.23992 103.842 0 100.742 0 97.5094V12.1887C0 8.95604 1.23992 5.8558 3.447 3.56998C5.65408 1.28416 8.64752 0 11.7688 0H105.919ZM88.266 73.1321H29.422C27.8614 73.1321 26.3646 73.7742 25.2611 74.9171C24.1576 76.06 23.5376 77.6101 23.5376 79.2264C23.5376 80.8427 24.1576 82.3929 25.2611 83.5358C26.3646 84.6787 27.8614 85.3208 29.422 85.3208H88.266C89.8266 85.3208 91.3234 84.6787 92.4269 83.5358C93.5304 82.3929 94.1504 80.8427 94.1504 79.2264C94.1504 77.6101 93.5304 76.06 92.4269 74.9171C91.3234 73.7742 89.8266 73.1321 88.266 73.1321ZM47.0752 24.3774H35.3064C32.3373 24.3764 29.4775 25.5378 27.3004 27.6287C25.1233 29.7196 23.7897 32.5855 23.567 35.6519L23.5376 36.566V48.7547C23.5367 51.8298 24.658 54.7916 26.6769 57.0464C28.6958 59.3011 31.463 60.6823 34.4237 60.9129L35.3064 60.9434H47.0752C50.0443 60.9444 52.9041 59.783 55.0812 57.6921C57.2583 55.6012 58.5919 52.7353 58.8146 49.6689L58.844 48.7547V36.566C58.8449 33.491 57.7236 30.5292 55.7047 28.2744C53.6858 26.0196 50.9186 24.6385 47.9579 24.4078L47.0752 24.3774ZM88.266 48.7547H70.6128C69.113 48.7564 67.6704 49.3512 66.5798 50.4175C65.4892 51.4839 64.8329 52.9412 64.745 54.4919C64.6571 56.0425 65.1443 57.5694 66.1069 58.7606C67.0695 59.9518 68.435 60.7173 69.9243 60.9007L70.6128 60.9434H88.266C89.7658 60.9417 91.2084 60.3469 92.299 59.2806C93.3896 58.2142 94.0459 56.7569 94.1337 55.2062C94.2216 53.6556 93.7345 52.1287 92.7719 50.9375C91.8093 49.7464 90.4438 48.9808 88.9545 48.7974L88.266 48.7547ZM47.0752 36.566V48.7547H35.3064V36.566H47.0752ZM88.266 24.3774H70.6128C69.0522 24.3774 67.5554 25.0194 66.4519 26.1623C65.3484 27.3053 64.7284 28.8554 64.7284 30.4717C64.7284 32.088 65.3484 33.6381 66.4519 34.781C67.5554 35.924 69.0522 36.566 70.6128 36.566H88.266C89.8266 36.566 91.3234 35.924 92.4269 34.781C93.5304 33.6381 94.1504 32.088 94.1504 30.4717C94.1504 28.8554 93.5304 27.3053 92.4269 26.1623C91.3234 25.0194 89.8266 24.3774 88.266 24.3774Z" fill="white"/>
</svg>
