<svg width="118" height="119" viewBox="0 0 118 119" fill="none" xmlns="http://www.w3.org/2000/svg">
<path d="M65.2395 96.7754C71.0658 85.795 90.485 85.795 90.485 85.795C110.724 85.5827 113.46 73.2932 115.288 67.0835C113.676 79.9459 107.873 91.9194 98.7756 101.154C89.6783 110.389 77.7932 116.371 64.9564 118.176C63.0516 114.166 60.7989 105.143 65.2395 96.7754Z" fill="white"/>
<path d="M17.7268 21.3083L15.2972 19.2325C15.0985 19.0582 14.9058 18.8772 14.7193 18.69C5.21418 29.4479 -0.0219381 43.3144 6.90903e-05 57.6698C6.90903e-05 89.8681 25.8117 116.051 57.8743 116.629C55.7926 110.408 54.4304 100.33 59.6316 90.5344C64.4083 81.5354 74.0206 77.9913 80.1418 76.4816C84.1296 75.5194 88.2069 74.9759 92.3075 74.8599H92.6201C100.764 74.7656 103.925 72.3654 105.381 70.7202C107.186 68.6915 107.894 66.2855 108.878 62.9301L109.008 62.4937C109.568 60.5901 110.752 58.93 112.369 57.7802C113.986 56.6305 115.943 56.0578 117.925 56.1543C117.581 42.0057 112.141 28.4569 102.604 18C102.415 19.0438 102.191 20.0227 101.973 20.8837C100.97 24.7817 99.2956 28.9922 97.2316 32.1177C95.2207 35.1842 91.6352 37.9145 89.2587 39.6247C87.4601 40.9162 85.6202 41.9835 84.1105 42.8622L83.568 43.1748C82.1999 43.9591 81.1148 44.5901 80.0769 45.2682C77.9775 46.6541 76.7156 47.8865 75.8664 49.5554C76.3853 51.4543 76.7509 53.6421 76.7627 55.9243C76.7745 61.3614 73.9911 65.6545 70.671 68.3318C67.3255 71.0073 63.1604 72.4484 58.8768 72.4126C41.4803 72.2239 31.2783 58.0296 29.9633 43.4106C29.58 39.1588 27.6693 34.5768 24.9979 30.3073C22.9526 27.0207 20.5105 23.9983 17.7268 21.3083Z" fill="white"/>
<path d="M36.5675 44.7098C35.4647 32.4202 25.9881 20.968 21.3824 16.7811L18.8467 14.5991C29.4591 5.66369 42.8919 0.77316 56.7651 0.794012C69.8213 0.794012 81.8868 5.03993 91.6524 12.2108C93.0323 16.4037 90.4022 25.1609 87.6423 29.3478C86.6398 30.8634 84.3754 32.7505 81.8868 34.5373C76.2845 38.565 69.208 40.5523 65.6107 47.9709C64.7117 49.8386 64.5373 51.9735 65.1213 53.9624C65.4751 55.2597 65.711 56.6691 65.711 58.0432C65.7228 62.4955 61.2174 65.7094 56.7651 65.6622C45.1832 65.5384 37.5995 56.2033 36.5675 44.7098Z" fill="white"/>
</svg>
