<svg width="173" height="135" viewBox="0 0 173 135" fill="none" xmlns="http://www.w3.org/2000/svg">
<path d="M97.3125 12.0536C97.3125 8.85677 96.1733 5.79089 94.1456 3.53041C92.1179 1.26993 89.3677 0 86.5 0C83.6323 0 80.8821 1.26993 78.8544 3.53041C76.8267 5.79089 75.6875 8.85677 75.6875 12.0536C75.6875 15.2504 76.8267 18.3163 78.8544 20.5767C80.8821 22.8372 83.6323 24.1071 86.5 24.1071C89.3677 24.1071 92.1179 22.8372 94.1456 20.5767C96.1733 18.3163 97.3125 15.2504 97.3125 12.0536ZM38.925 53.0357C41.7927 53.0357 44.5429 51.7658 46.5706 49.5053C48.5983 47.2448 49.7375 44.179 49.7375 40.9821C49.7375 37.7853 48.5983 34.7195 46.5706 32.459C44.5429 30.1985 41.7927 28.9286 38.925 28.9286C36.0573 28.9286 33.3071 30.1985 31.2794 32.459C29.2517 34.7195 28.1125 37.7853 28.1125 40.9821C28.1125 44.179 29.2517 47.2448 31.2794 49.5053C33.3071 51.7658 36.0573 53.0357 38.925 53.0357ZM8.65 115.714C3.86547 115.714 0 120.023 0 125.357C0 130.691 3.86547 135 8.65 135H164.35C169.135 135 173 130.691 173 125.357C173 120.023 169.135 115.714 164.35 115.714H8.65ZM134.075 53.0357C136.943 53.0357 139.693 51.7658 141.721 49.5053C143.748 47.2448 144.887 44.179 144.887 40.9821C144.887 37.7853 143.748 34.7195 141.721 32.459C139.693 30.1985 136.943 28.9286 134.075 28.9286C131.207 28.9286 128.457 30.1985 126.429 32.459C124.402 34.7195 123.262 37.7853 123.262 40.9821C123.262 44.179 124.402 47.2448 126.429 49.5053C128.457 51.7658 131.207 53.0357 134.075 53.0357ZM54.0625 84.827L61.3339 99.8638C63.0369 103.39 66.9564 104.685 70.1191 102.817C73.2817 100.949 74.4441 96.5491 72.7681 93.0234L62.9558 72.683C63.4153 72.1708 63.8208 71.5982 64.1181 70.9353L71.3625 55.8984V72.3214C71.3625 77.6551 75.228 81.9643 80.0125 81.9643H92.9875C97.772 81.9643 101.637 77.6551 101.637 72.3214V55.8984L108.909 70.9353C109.233 71.5982 109.612 72.1708 110.071 72.683L100.259 93.0234C98.5559 96.5491 99.7453 100.919 102.908 102.817C106.071 104.715 109.99 103.39 111.693 99.8638L118.937 84.827V96.4286C118.937 101.762 122.803 106.071 127.587 106.071H140.562C145.347 106.071 149.212 101.762 149.212 96.4286V84.827L156.484 99.8638C158.187 103.39 162.106 104.685 165.269 102.817C168.432 100.949 169.594 96.5491 167.918 93.0234L157.673 71.8393C153.537 63.2511 145.482 57.8873 136.724 57.8873H131.453C127.047 57.8873 122.83 59.2433 119.181 61.6842L110.098 42.9107C105.962 34.3225 97.9072 28.9587 89.1491 28.9587H83.878C75.1198 28.9587 67.0916 34.3225 62.9287 42.9107L53.8462 61.6842C50.197 59.2433 45.9802 57.8873 41.5741 57.8873H36.303C27.5448 57.8873 19.5166 63.2511 15.3537 71.8393L5.10891 92.9933C3.40594 96.519 4.59531 100.888 7.75797 102.787C10.9206 104.685 14.8402 103.359 16.5431 99.8337L23.7875 84.827V96.4286C23.7875 101.762 27.653 106.071 32.4375 106.071H45.4125C50.197 106.071 54.0625 101.762 54.0625 96.4286V84.827Z" fill="white"/>
</svg>
